#!OML:ASF F:\VICON\USERDATA\INSTALL\rory3\rory3.ASF
:FULLY-SPECIFIED
:DEGREES
1123
root 0.644025 15.4246 3.4376 8.80049 -50.0727 15.2467
lowerback 4.88541 9.07808 7.34006
upperback 4.89056 12.3341 -3.71349
thorax 4.84675 6.57153 -7.76718
lowerneck -1.66634 -4.52063 -3.89664
upperneck 51.4039 -13.2348 10.3923
head 23.9557 -4.97096 4.30305
rclavicle 1.43125e-014 -6.36111e-015
rhumerus -47.8442 54.3578 -130.446
rradius 90.1855
rwrist -28.0124
rhand 26.5865 -27.235
rfingers 7.12502
rthumb 50.6136 -48.1294
lclavicle 1.43125e-014 -6.36111e-015
lhumerus -15.8582 -77.8848 96.8336
lradius 100.129
lwrist 27.775
lhand -6.32082 -21.1719
lfingers 7.12502
lthumb 19.5239 7.86779
rfemur -68.108 -8.82831 10.9851
rtibia 88.331
rfoot -11.8669 -10.6007
rtoes -25.3497
lfemur -57.6166 -23.2306 -27.4505
ltibia 61.8408
lfoot -22.7131 7.60086
ltoes 9.2856
1124
root 0.637263 15.4241 3.42719 8.77319 -50.4523 15.2144
lowerback 4.9438 9.20381 7.2308
upperback 4.92714 12.4997 -3.70917
thorax 4.86093 6.65095 -7.70018
lowerneck -1.81344 -4.53167 -3.89376
upperneck 51.3453 -13.2675 10.4388
head 23.9735 -4.97424 4.31473
rclavicle -3.65764e-014 2.8625e-014
rhumerus -47.6499 54.3844 -130.263
rradius 90.2062
rwrist -28.0567
rhand 26.4767 -26.9221
rfingers 7.12502
rthumb 50.5133 -47.8711
lclavicle -3.65764e-014 2.8625e-014
lhumerus -15.1153 -78.1539 96.0477
lradius 100.161
lwrist 27.6052
lhand -8.10018 -21.5511
lfingers 7.12502
lthumb 17.8124 7.6531
rfemur -68.1632 -8.38874 11.0242
rtibia 88.351
rfoot -11.6401 -10.8823
rtoes -26.2705
lfemur -57.6194 -22.9654 -27.3843
ltibia 61.8667
lfoot -22.823 7.63185
ltoes 9.3227
1125
root 0.638968 15.4183 3.42657 8.57773 -50.2106 15.4053
lowerback 4.98645 9.04342 7.30436
upperback 4.93989 12.2908 -3.73943
thorax 4.83334 6.55075 -7.79192
lowerneck -1.88116 -4.49846 -3.9316
upperneck 51.4107 -13.2081 10.3863
head 24.0544 -4.96519 4.30811
rclavicle -3.10104e-014 -1.27222e-014
rhumerus -47.635 54.4908 -130.359
rradius 90.1378
rwrist -28.1454
rhand 26.2979 -26.8622
rfingers 7.12502
rthumb 50.35 -47.8992
lclavicle -3.10104e-014 -1.27222e-014
lhumerus -15.0118 -78.1807 95.8351
lradius 100.254
lwrist 27.9387
lhand -9.23492 -21.5985
lfingers 7.12502
lthumb 16.7203 7.70143
rfemur -68.1141 -8.63233 10.881
rtibia 88.462
rfoot -11.7701 -10.7164
rtoes -26.0377
lfemur -57.583 -23.2753 -27.4582
ltibia 61.8713
lfoot -22.8045 7.70043
ltoes 9.29152
1126
root 0.638922 15.4136 3.42574 8.45654 -50.1523 15.5691
lowerback 4.98879 8.927 7.31172
upperback 4.92033 12.1373 -3.7746
thorax 4.78996 6.47364 -7.84615
lowerneck -1.88669 -4.42451 -4.02975
upperneck 51.495 -13.0717 10.3352
head 24.1201 -4.94278 4.3323
rclavicle -4.29375e-014 1.74931e-014
rhumerus -47.6697 54.6411 -130.552
rradius 90.0268
rwrist -28.1322
rhand 26.5902 -27.3822
rfingers 7.12502
rthumb 50.617 -48.2748
lclavicle -4.29375e-014 1.74931e-014
lhumerus -15.2738 -77.9476 95.9907
lradius 100.312
lwrist 28.3166
lhand -8.64943 -21.503
lfingers 7.12502
lthumb 17.2839 7.7484
rfemur -68.1806 -8.72478 10.8182
rtibia 88.5288
rfoot -11.5167 -10.9283
rtoes -27.7278
lfemur -57.6103 -23.3868 -27.4624
ltibia 61.9087
lfoot -22.8796 7.40178
ltoes 9.6131
1127
root 0.639981 15.415 3.4204 8.44605 -50.0743 15.618
lowerback 4.95114 8.8734 7.41474
upperback 4.95897 12.0679 -3.8123
thorax 4.87092 6.44934 -7.93415
lowerneck -1.92557 -4.39891 -4.17423
upperneck 51.4271 -13.0518 10.4787
head 24.1173 -4.9547 4.44518
rclavicle 4.53229e-014 -6.20208e-014
rhumerus -47.2975 54.7468 -130.366
rradius 89.9307
rwrist -28.1941
rhand 27.813 -28.5893
rfingers 7.12502
rthumb 51.7304 -48.8537
lclavicle 4.53229e-014 -6.20208e-014
lhumerus -14.7258 -77.8923 95.4026
lradius 100.357
lwrist 28.3748
lhand -7.12861 -21.081
lfingers 7.12502
lthumb 18.7471 8.03564
rfemur -68.2367 -8.88111 10.8497
rtibia 88.5529
rfoot -11.2523 -10.9757
rtoes -29.2894
lfemur -57.6963 -23.506 -27.255
ltibia 61.9278
lfoot -23.0407 6.76639
ltoes 10.2551
1128
root 0.640435 15.4162 3.41342 8.35734 -50.0337 15.7994
lowerback 4.85714 8.87307 7.42123
upperback 5.01222 12.0642 -3.86146
thorax 4.99339 6.45613 -7.96759
lowerneck -1.94309 -4.40569 -4.34574
upperneck 51.3052 -13.0999 10.6998
head 24.0875 -4.9906 4.59305
rclavicle 3.57812e-014 -2.54444e-014
rhumerus -47.0448 54.7581 -130.145
rradius 89.9551
rwrist -28.3585
rhand 28.3777 -29.1569
rfingers 7.12502
rthumb 52.2427 -49.1173
lclavicle 3.57812e-014 -2.54444e-014
lhumerus -14.1172 -77.9621 94.8281
lradius 100.363
lwrist 28.258
lhand -6.66542 -20.8662
lfingers 7.12502
lthumb 19.1926 8.20678
rfemur -68.2513 -9.00842 10.5382
rtibia 88.6569
rfoot -12.2958 -9.54199
rtoes -24.5722
lfemur -57.7236 -23.5295 -27.3529
ltibia 61.8751
lfoot -22.9811 6.85393
ltoes 10.0946
1129
root 0.637902 15.4103 3.41054 8.14172 -50.0799 16.0626
lowerback 4.78243 8.88177 7.34348
upperback 5.06503 12.071 -3.90977
thorax 5.08756 6.4632 -7.95866
lowerneck -1.96021 -4.41556 -4.43581
upperneck 51.2516 -13.1287 10.7905
head 24.0816 -5.01287 4.65552
rclavicle 1.03368e-014 -3.49861e-014
rhumerus -46.4247 54.9501 -129.817
rradius 89.6549
rwrist -28.5896
rhand 27.7232 -28.5432
rfingers 7.12502
rthumb 51.6488 -48.8552
lclavicle 1.03368e-014 -3.49861e-014
lhumerus -13.7725 -77.898 94.4953
lradius 100.308
lwrist 28.1999
lhand -6.8331 -21.0339
lfingers 7.12502
lthumb 19.0313 8.05498
rfemur -68.3497 -9.15095 10.5287
rtibia 88.6715
rfoot -11.3695 -10.3166
rtoes -28.961
lfemur -57.6153 -23.4054 -27.7786
ltibia 61.7924
lfoot -22.7575 7.40631
ltoes 9.39367
1130
root 0.635021 15.4099 3.40876 8.08126 -50.1449 16.0377
lowerback 4.85688 8.80566 7.3274
upperback 5.02275 11.9693 -3.82438
thorax 4.95511 6.4014 -7.88569
lowerneck -1.87402 -4.35397 -4.65107
upperneck 51.3306 -12.9864 10.7371
head 24.1149 -5.0147 4.70571
rclavicle 9.54166e-015 -3.18055e-015
rhumerus -47.3784 55.0039 -130.474
rradius 89.8298
rwrist -28.4046
rhand 27.0966 -27.7634
rfingers 7.12502
rthumb 51.0788 -48.4008
lclavicle 9.54166e-015 -3.18055e-015
lhumerus -14.2676 -77.4889 94.9372
lradius 100.279
lwrist 27.9942
lhand -6.46917 -21.0975
lfingers 7.12502
lthumb 19.3813 7.9566
rfemur -68.3021 -9.08021 10.5908
rtibia 88.6779
rfoot -10.8911 -10.693
rtoes -30.7528
lfemur -57.4743 -23.311 -27.9064
ltibia 61.7355
lfoot -22.5969 7.88319
ltoes 8.07823
1131
root 0.634249 15.4107 3.40658 8.11147 -50.224 15.9832
lowerback 4.9002 8.63964 7.28338
upperback 4.93574 11.7436 -3.67776
thorax 4.74644 6.26901 -7.7415
lowerneck -1.75243 -4.16194 -5.07805
upperneck 51.4571 -12.5966 10.6759
head 24.1486 -4.97235 4.84762
rclavicle 4.77083e-015 5.725e-014
rhumerus -48.8128 55.2588 -131.536
rradius 90.0351
rwrist -28.4451
rhand 26.5145 -27.5494
rfingers 7.12502
rthumb 50.5478 -48.4797
lclavicle 4.77083e-015 5.725e-014
lhumerus -15.0804 -76.8762 95.7031
lradius 100.277
lwrist 27.8143
lhand -5.91598 -21.077
lfingers 7.12502
lthumb 19.9131 7.92281
rfemur -68.3415 -8.97382 10.6446
rtibia 88.6789
rfoot -10.6995 -10.8188
rtoes -30.7694
lfemur -57.4806 -23.3213 -27.8271
ltibia 61.734
lfoot -22.5655 8.08934
ltoes 7.7409
1132
root 0.634854 15.4118 3.40531 8.09939 -50.2766 16.1074
lowerback 4.80217 8.65337 7.21364
upperback 4.91137 11.7556 -3.66946
thorax 4.75969 6.27102 -7.68093
lowerneck -1.75776 -4.15666 -5.11303
upperneck 51.5238 -12.5602 10.5984
head 24.2032 -4.97157 4.82387
rclavicle 4.77083e-015 4.77083e-015
rhumerus -48.5359 55.3468 -131.402
rradius 89.8348
rwrist -28.7297
rhand 26.3496 -27.7696
rfingers 7.12502
rthumb 50.3973 -48.7812
lclavicle 4.77083e-015 4.77083e-015
lhumerus -15.0828 -76.9449 95.7624
lradius 100.283
lwrist 27.9853
lhand -5.32388 -21.0704
lfingers 7.12502
lthumb 20.4822 7.86925
rfemur -68.4498 -8.98163 10.5339
rtibia 88.6794
rfoot -10.8523 -10.5755
rtoes -29.6478
lfemur -57.646 -23.4341 -27.7128
ltibia 61.8024
lfoot -22.7505 7.66889
ltoes 9.0863
1133
root 0.634668 15.4145 3.40442 8.12671 -50.2679 16.1189
lowerback 4.74911 8.82902 7.26543
upperback 4.94391 11.9926 -3.74776
thorax 4.90214 6.40195 -7.76032
lowerneck -1.88787 -4.38878 -4.68869
upperneck 51.5366 -12.9738 10.4814
head 24.2934 -5.03722 4.58764
rclavicle -1.59823e-013 9.22361e-014
rhumerus -47.908 54.8718 -130.785
rradius 89.8976
rwrist -28.606
rhand 26.6609 -27.835
rfingers 7.12502
rthumb 50.6815 -48.6924
lclavicle -1.59823e-013 9.22361e-014
lhumerus -14.3838 -77.5529 95.1488
lradius 100.325
lwrist 28.3067
lhand -4.88409 -21.0277
lfingers 7.12502
lthumb 20.9048 7.86595
rfemur -68.4623 -8.96754 10.5473
rtibia 88.6206
rfoot -10.6244 -10.756
rtoes -30.8502
lfemur -57.7919 -23.6605 -27.4292
ltibia 61.9391
lfoot -22.9715 7.27094
ltoes 9.75041
1134
root 0.634425 15.4151 3.40172 8.20658 -50.23 15.9876
lowerback 4.76076 8.89135 7.46315
upperback 4.96754 12.0849 -3.81418
thorax 5.00096 6.46491 -7.92598
lowerneck -1.92499 -4.50133 -4.41727
upperneck 51.4664 -13.2045 10.4932
head 24.2499 -5.06272 4.48437
rclavicle 1.18476e-013 1.59028e-015
rhumerus -47.0162 54.7602 -130.318
rradius 89.6097
rwrist -28.8228
rhand 26.8106 -27.9123
rfingers 7.12502
rthumb 50.8181 -48.6946
lclavicle 1.18476e-013 1.59028e-015
lhumerus -13.8371 -77.8328 94.5444
lradius 100.354
lwrist 28.4858
lhand -4.89638 -20.9941
lfingers 7.12502
lthumb 20.893 7.90077
rfemur -68.4501 -8.935 10.746
rtibia 88.5354
rfoot -9.98571 -11.322
rtoes -33.5709
lfemur -57.8623 -23.7777 -27.1813
ltibia 62.075
lfoot -23.0936 7.1453
ltoes 9.77791
1135
root 0.632989 15.4138 3.39488 8.30877 -50.2734 15.8448
lowerback 4.80141 8.88072 7.57319
upperback 4.91644 12.0766 -3.80138
thorax 4.94329 6.46153 -7.98304
lowerneck -1.79293 -4.46144 -4.42408
upperneck 51.4432 -13.1284 10.4923
head 24.1425 -5.03979 4.4967
rclavicle 3.81667e-014 -2.70347e-014
rhumerus -47.2355 54.7105 -130.516
rradius 89.6616
rwrist -28.8574
rhand 27.0731 -28.149
rfingers 7.12502
rthumb 51.0574 -48.7983
lclavicle 3.81667e-014 -2.70347e-014
lhumerus -14.352 -77.6692 95.0306
lradius 100.291
lwrist 28.4373
lhand -4.11381 -21.0109
lfingers 7.12502
lthumb 21.6447 7.79932
rfemur -68.4636 -8.81108 10.9012
rtibia 88.4811
rfoot -9.81781 -11.5731
rtoes -34.079
lfemur -57.9365 -23.6531 -27.0569
ltibia 62.1737
lfoot -23.1901 6.90537
ltoes 10.3476
